<?xml version="1.0" encoding="UTF-8"?><svg xmlns="http://www.w3.org/2000/svg" xmlns:xlink="http://www.w3.org/1999/xlink" fill-opacity="1" color-rendering="auto" color-interpolation="auto" text-rendering="auto" stroke="black" stroke-linecap="square" width="643" stroke-miterlimit="10" shape-rendering="auto" stroke-opacity="1" fill="black" stroke-dasharray="none" font-weight="normal" stroke-width="1" height="434" font-family="'Dialog'" font-style="normal" stroke-linejoin="miter" font-size="12px" stroke-dashoffset="0" image-rendering="auto">
  <!--Generated by ySVG 2.5-->
  <defs id="genericDefs"/>
  <g>
    <g fill="white" text-rendering="geometricPrecision" shape-rendering="geometricPrecision" transform="translate(377,362)" stroke="white">
      <rect x="-377" width="643" height="434" y="-362" clip-path="url(#clipPath2)" stroke="none"/>
    </g>
    <g fill="rgb(104,176,227)" text-rendering="geometricPrecision" shape-rendering="geometricPrecision" transform="matrix(1,0,0,1,377,362)" stroke="rgb(104,176,227)">
      <path d="M-361.9122 -287.0146 L-361.9122 -87.508 L-24.8911 -87.508 L-24.8911 -287.0146 ZM-360.9122 -265.0146 L-360.9122 -88.508 L-25.8911 -88.508 L-25.8911 -265.0146 Z" fill-rule="evenodd" clip-path="url(#clipPath2)" stroke="none"/>
    </g>
    <g stroke-linecap="butt" transform="matrix(1,0,0,1,377,362)" fill="white" text-rendering="geometricPrecision" font-family="sans-serif" shape-rendering="geometricPrecision" stroke="white" stroke-miterlimit="1.45">
      <text x="-359.9122" xml:space="preserve" y="-273.876" clip-path="url(#clipPath2)" stroke="none">Docker Containers (docker-compose)</text>
    </g>
    <g fill="rgb(51,204,204)" text-rendering="geometricPrecision" shape-rendering="geometricPrecision" transform="matrix(1,0,0,1,377,362)" stroke="rgb(51,204,204)">
      <rect x="-300.2305" width="86.96" height="28.72" y="-156.1109" clip-path="url(#clipPath2)" stroke="none"/>
    </g>
    <g text-rendering="geometricPrecision" stroke-miterlimit="1.45" shape-rendering="geometricPrecision" transform="matrix(1,0,0,1,377,362)" stroke-linecap="butt">
      <rect fill="none" x="-300.2305" width="86.96" height="28.72" y="-156.1109" clip-path="url(#clipPath2)"/>
      <text x="-293.0083" xml:space="preserve" y="-137.5966" clip-path="url(#clipPath2)" font-family="sans-serif" stroke="none">prometheus</text>
    </g>
    <g fill="rgb(51,204,204)" text-rendering="geometricPrecision" shape-rendering="geometricPrecision" transform="matrix(1,0,0,1,377,362)" stroke="rgb(51,204,204)">
      <rect x="-300.2305" width="86.96" height="28.72" y="-214.8309" clip-path="url(#clipPath2)" stroke="none"/>
    </g>
    <g text-rendering="geometricPrecision" stroke-miterlimit="1.45" shape-rendering="geometricPrecision" transform="matrix(1,0,0,1,377,362)" stroke-linecap="butt">
      <rect fill="none" x="-300.2305" width="86.96" height="28.72" y="-214.8309" clip-path="url(#clipPath2)"/>
      <text x="-279.9712" xml:space="preserve" y="-196.3166" clip-path="url(#clipPath2)" font-family="sans-serif" stroke="none">grafana</text>
    </g>
    <g fill="rgb(51,204,204)" text-rendering="geometricPrecision" shape-rendering="geometricPrecision" transform="matrix(1,0,0,1,377,362)" stroke="rgb(51,204,204)">
      <rect x="-147.217" width="86.96" height="30" y="-155.4709" clip-path="url(#clipPath2)" stroke="none"/>
    </g>
    <g text-rendering="geometricPrecision" stroke-miterlimit="1.45" shape-rendering="geometricPrecision" transform="matrix(1,0,0,1,377,362)" stroke-linecap="butt">
      <rect fill="none" x="-147.217" width="86.96" height="30" y="-155.4709" clip-path="url(#clipPath2)"/>
      <text x="-142.4528" xml:space="preserve" y="-136.3166" clip-path="url(#clipPath2)" font-family="sans-serif" stroke="none">MQTT broker</text>
    </g>
    <g fill="rgb(51,204,204)" text-rendering="geometricPrecision" shape-rendering="geometricPrecision" transform="matrix(1,0,0,1,377,362)" stroke="rgb(51,204,204)">
      <rect x="-147.217" width="86.96" height="30" y="-215.4709" clip-path="url(#clipPath2)" stroke="none"/>
    </g>
    <g text-rendering="geometricPrecision" stroke-miterlimit="1.45" shape-rendering="geometricPrecision" transform="matrix(1,0,0,1,377,362)" stroke-linecap="butt">
      <rect fill="none" x="-147.217" width="86.96" height="30" y="-215.4709" clip-path="url(#clipPath2)"/>
      <text x="-146.7946" xml:space="preserve" y="-196.3166" clip-path="url(#clipPath2)" font-family="sans-serif" stroke="none">mqtt_exporter</text>
    </g>
    <g text-rendering="geometricPrecision" shape-rendering="geometricPrecision" transform="matrix(1,0,0,1,86.4365,14.979)">
      <g clip-path="url(#clipPath3)">
        <svg xml:space="preserve" opacity="1" writing-mode="lr-tb" stop-color="rgb(0, 0, 0)" shape-rendering="auto" glyph-orientation-horizontal="0deg" color-profile="auto" lighting-color="rgb(255, 255, 255)" color="rgb(0, 0, 0)" font-weight="400" alignment-baseline="auto" font-style="normal" version="1.1" color-interpolation-filters="linearrgb" text-anchor="start" stroke-linecap="butt" color-interpolation="srgb" font-variant="normal" word-spacing="normal" fill-opacity="1" text-rendering="auto" clip-path="none" text-decoration="none" letter-spacing="normal" viewBox="-0.064 -0.075 68 46" glyph-orientation-vertical="auto" display="inline" font-size-adjust="none" overflow="visible" fill="rgb(0, 0, 0)" font-stretch="normal" stroke-dasharray="none" stroke-miterlimit="4" stop-opacity="1" color-rendering="auto" font-size="12" pointer-events="visiblepainted" mask="none" direction="ltr" baseline-shift="baseline" enable-background="new -0.064 -0.075 68 46" fill-rule="nonzero" image-rendering="auto" stroke-dashoffset="0" width="68px" marker-end="none" clip="auto" cursor="auto" stroke="none" filter="none" visibility="visible" kerning="auto" stroke-width="1" font-family="&quot;Arial&quot;,&quot;Helvetica&quot;,sans-serif" flood-opacity="1" clip-rule="nonzero" src="none" height="46px" unicode-bidi="normal" stroke-linejoin="miter" stroke-opacity="1" flood-color="rgb(0, 0, 0)" dominant-baseline="auto" marker-start="none" x="0px" marker-mid="none" y="0px">
<defs>
<clipPath clipPathUnits="userSpaceOnUse" id="clipPath1">
              <path d="M0 0 L643 0 L643 434 L0 434 L0 0 Z"/>
            </clipPath>
            <clipPath clipPathUnits="userSpaceOnUse" id="clipPath2">
              <path d="M-377 -362 L266 -362 L266 72 L-377 72 L-377 -362 Z"/>
            </clipPath>
            <clipPath clipPathUnits="userSpaceOnUse" id="clipPath3">
              <path d="M-86.4365 -14.979 L556.5635 -14.979 L556.5635 419.021 L-86.4365 419.021 L-86.4365 -14.979 Z"/>
            </clipPath>
          </defs>
<radialGradient gradientTransform="matrix(1.15 0 0 1 -526.6598 -1982.4023)" id="svg1.SVGID_1_" r="21.6001" cx="478.8413" gradientUnits="userSpaceOnUse" cy="1991.2729">
	<stop offset="0" style="stop-color:#F2F2F2"/>
	<stop offset="1" style="stop-color:#8D8D8D"/>
</radialGradient>
<path fill="url(#svg1.SVGID_1_)" d="M10.263,1.903c0-0.987,0.807-1.794,1.794-1.794h43.279c0.986,0,1.795,0.807,1.795,1.794v26.978  c0,0.987-0.809,1.794-1.795,1.794h-43.28c-0.987,0-1.794-0.807-1.794-1.794L10.263,1.903L10.263,1.903z"/>
<path stroke-linecap="round" display="none" fill="none" stroke-linejoin="round" d="  M10.263,1.903c0-0.987,0.807-1.794,1.794-1.794h43.279c0.986,0,1.795,0.807,1.795,1.794v26.978c0,0.987-0.809,1.794-1.795,1.794  h-43.28c-0.987,0-1.794-0.807-1.794-1.794L10.263,1.903L10.263,1.903z" stroke="#3C89C9" stroke-width="0.2185" stroke-miterlimit="10"/>
<radialGradient gradientTransform="matrix(1.1935 0 0 1 -509.6731 -1982.4023)" gradientUnits="userSpaceOnUse" r="47.8462" cx="455.894" id="svg1.SVGID_2_" cy="1983.9624" fx="493.5344" fy="1977.5143">
	<stop offset="0" style="stop-color:#4D4D4D"/>
	<stop offset="1" style="stop-color:#999999"/>
</radialGradient>
<path fill="url(#svg1.SVGID_2_)" d="M11.18,2.819c0-0.987,0.807-1.794,1.794-1.794h41.649c0.986,0,1.795,0.807,1.795,1.794v24.943  c0,0.985-0.809,1.794-1.795,1.794H12.974c-0.987,0-1.794-0.809-1.794-1.794V2.819z"/>
<radialGradient gradientTransform="matrix(1.1923 0 0 1 -510.1314 -1982.4023)" id="svg1.SVGID_3_" r="30.6699" cx="456.8843" gradientUnits="userSpaceOnUse" cy="1984.0386">
	<stop offset="0" style="stop-color:#9CD7FF"/>
	<stop offset="1" style="stop-color:#3C89C9"/>
</radialGradient>
<path fill="url(#svg1.SVGID_3_)" d="M11.689,3.228c0-0.987,0.807-1.794,1.794-1.794h40.633c0.986,0,1.795,0.807,1.795,1.794v24.126  c0,0.986-0.809,1.794-1.795,1.794H13.483c-0.987,0-1.794-0.809-1.794-1.794V3.228z"/>
<path fill="#F2F2F2" opacity="0.24" d="M11.689,21.472V3.228c0-0.987,0.807-1.794,1.794-1.794h40.633  c0.986,0,1.795,0.807,1.795,1.794v9.454c0,0.987-10.518,5.21-18.256,6.795C29.917,21.062,11.689,21.472,11.689,21.472z"/>
<linearGradient gradientTransform="matrix(1 0 0 -1 -97.6001 -165.0498)" x1="131.3501" x2="131.3501" gradientUnits="userSpaceOnUse" y1="-212.2612" y2="-170.6274" id="svg1.SVGID_4_">
	<stop offset="0" style="stop-color:#4D4D4D"/>
	<stop offset="0.0667" style="stop-color:#717171"/>
	<stop offset="0.069" style="stop-color:#757575"/>
	<stop offset="0.0831" style="stop-color:#8C8C8C"/>
	<stop offset="0.0996" style="stop-color:#9E9E9E"/>
	<stop offset="0.1196" style="stop-color:#AAAAAA"/>
	<stop offset="0.1466" style="stop-color:#B1B1B1"/>
	<stop offset="0.2121" style="stop-color:#B3B3B3"/>
	<stop offset="1" style="stop-color:#C5C5C5"/>
</linearGradient>
<path fill="url(#svg1.SVGID_4_)" d="M58.385,32.234c-0.689-0.856-2.154-1.559-3.254-1.559H12c-1.1,0-2.552,0.711-3.227,1.579  l-7.546,9.717C0,43.55,0.042,43.785,0,44.55v0.125c0.056,0.393,0.311,1.002,1.248,1.002h64.75c0.75,0.002,1.5-0.252,1.5-1.002V44.55  c0-0.813,0-0.813-1.254-2.559L58.385,32.234z"/>
<path fill="#F2F2F2" d="M58.385,32.234c-0.689-0.856-2.154-1.559-3.254-1.559H12  c-1.1,0-2.552,0.711-3.227,1.579l-7.055,9.085l58.098-7.33L58.385,32.234z" enable-background="new    " opacity="0.23"/>
<path fill="#6E6E6E" d="M59.75,37.205c0.344,0.431,0.172,0.783-0.377,0.783H8.249c-0.55,0-0.742-0.369-0.427-0.819l2.786-3.986  c0.315-0.45,1.023-0.819,1.573-0.819h42.729c0.551,0,1.279,0.354,1.623,0.783L59.75,37.205z"/>
<path fill="#6E6E6E" d="M40.43,41.906c0.072,0.217-0.057,0.395-0.285,0.395H26.727c-0.229,0-0.364-0.18-0.3-0.398l0.822-2.826  c0.064-0.221,0.303-0.399,0.532-0.399h11.167c0.229,0,0.475,0.179,0.547,0.396L40.43,41.906z"/>
</svg>
      </g>
    </g>
    <g fill="silver" text-rendering="geometricPrecision" shape-rendering="geometricPrecision" transform="matrix(1,0,0,1,377,362)" stroke="silver">
      <rect x="-332.7333" width="129.715" height="30" y="26.7083" clip-path="url(#clipPath2)" stroke="none"/>
    </g>
    <g text-rendering="geometricPrecision" stroke-miterlimit="1.45" shape-rendering="geometricPrecision" transform="matrix(1,0,0,1,377,362)" stroke-linecap="butt">
      <rect fill="none" x="-332.7333" width="129.715" height="30" y="26.7083" clip-path="url(#clipPath2)"/>
      <text x="-326.8504" xml:space="preserve" y="45.8626" clip-path="url(#clipPath2)" font-family="sans-serif" stroke="none">SMA homemanager</text>
    </g>
    <g fill="rgb(204,153,255)" text-rendering="geometricPrecision" shape-rendering="geometricPrecision" transform="matrix(1,0,0,1,377,362)" stroke="rgb(204,153,255)">
      <rect x="-332.7333" width="129.715" height="30" y="-26.6277" clip-path="url(#clipPath2)" stroke="none"/>
    </g>
    <g text-rendering="geometricPrecision" stroke-miterlimit="1.45" shape-rendering="geometricPrecision" transform="matrix(1,0,0,1,377,362)" stroke-linecap="butt">
      <rect fill="none" x="-332.7333" width="129.715" height="30" y="-26.6277" clip-path="url(#clipPath2)"/>
      <text x="-313.1717" xml:space="preserve" y="-7.4734" clip-path="url(#clipPath2)" font-family="sans-serif" stroke="none">sma-em (mqtt)</text>
    </g>
    <g fill="silver" text-rendering="geometricPrecision" shape-rendering="geometricPrecision" transform="matrix(1,0,0,1,377,362)" stroke="silver">
      <rect x="-173.0183" width="90.2928" height="30" y="26.7083" clip-path="url(#clipPath2)" stroke="none"/>
    </g>
    <g text-rendering="geometricPrecision" stroke-miterlimit="1.45" shape-rendering="geometricPrecision" transform="matrix(1,0,0,1,377,362)" stroke-linecap="butt">
      <rect fill="none" x="-173.0183" width="90.2928" height="30" y="26.7083" clip-path="url(#clipPath2)"/>
      <text x="-171.1375" xml:space="preserve" y="45.8626" clip-path="url(#clipPath2)" font-family="sans-serif" stroke="none">SMA STP 7000</text>
    </g>
    <g fill="silver" text-rendering="geometricPrecision" shape-rendering="geometricPrecision" transform="matrix(1,0,0,1,377,362)" stroke="silver">
      <rect x="-52.7255" width="90.2928" height="30" y="26.7083" clip-path="url(#clipPath2)" stroke="none"/>
    </g>
    <g text-rendering="geometricPrecision" stroke-miterlimit="1.45" shape-rendering="geometricPrecision" transform="matrix(1,0,0,1,377,362)" stroke-linecap="butt">
      <rect fill="none" x="-52.7255" width="90.2928" height="30" y="26.7083" clip-path="url(#clipPath2)"/>
      <text x="-45.7587" xml:space="preserve" y="45.8626" clip-path="url(#clipPath2)" font-family="sans-serif" stroke="none">SMA SBS 5.0</text>
    </g>
    <g fill="rgb(204,153,255)" text-rendering="geometricPrecision" shape-rendering="geometricPrecision" transform="matrix(1,0,0,1,377,362)" stroke="rgb(204,153,255)">
      <rect x="-142.8719" width="129.715" height="30" y="-26.6277" clip-path="url(#clipPath2)" stroke="none"/>
    </g>
    <g text-rendering="geometricPrecision" stroke-miterlimit="1.45" shape-rendering="geometricPrecision" transform="matrix(1,0,0,1,377,362)" stroke-linecap="butt">
      <rect fill="none" x="-142.8719" width="129.715" height="30" y="-26.6277" clip-path="url(#clipPath2)"/>
      <text x="-129.7673" xml:space="preserve" y="-7.4734" clip-path="url(#clipPath2)" font-family="sans-serif" stroke="none">modbus collector</text>
      <path fill="none" d="M-256.7505 -156.1109 L-256.7505 -178.1109" clip-path="url(#clipPath2)"/>
      <path d="M-256.7505 -186.1109 L-261.7505 -174.1109 L-256.7505 -177.1109 L-251.7505 -174.1109 Z" clip-path="url(#clipPath2)" stroke="none"/>
      <path fill="none" d="M-219.3309 -156.1109 L-150.2931 -182.6046" clip-path="url(#clipPath2)"/>
      <path d="M-142.8242 -185.4709 L-155.819 -185.8395 L-151.2267 -182.2463 L-152.2361 -176.5034 Z" clip-path="url(#clipPath2)" stroke="none"/>
      <path fill="none" d="M-103.737 -185.4709 L-103.737 -163.4709" clip-path="url(#clipPath2)"/>
      <path d="M-103.737 -155.4709 L-98.737 -167.4709 L-103.737 -164.4709 L-108.737 -167.4709 Z" clip-path="url(#clipPath2)" stroke="none"/>
      <path fill="none" d="M-256.7505 -301.2727 L-256.7505 -222.8309" clip-path="url(#clipPath2)"/>
      <path d="M-256.7505 -214.8309 L-251.7505 -226.8309 L-256.7505 -223.8309 L-261.7505 -226.8309 Z" clip-path="url(#clipPath2)" stroke="none"/>
      <path fill="none" d="M-248.7667 -26.6277 L-129.1389 -120.5312" clip-path="url(#clipPath2)"/>
      <path d="M-122.8461 -125.4709 L-135.3726 -121.9944 L-129.9255 -119.9137 L-129.1981 -114.1283 Z" clip-path="url(#clipPath2)" stroke="none"/>
      <path fill="none" d="M-267.8758 3.3723 L-267.8758 18.7083" clip-path="url(#clipPath2)"/>
      <path d="M-267.8758 26.7083 L-262.8758 14.7083 L-267.8758 17.7083 L-272.8758 14.7083 Z" clip-path="url(#clipPath2)" stroke="none"/>
      <path fill="none" d="M-92.0361 3.3723 L-108.3871 20.8641" clip-path="url(#clipPath2)"/>
      <path d="M-113.8501 26.7083 L-102.0029 21.3564 L-107.7042 20.1336 L-109.3082 14.5276 Z" clip-path="url(#clipPath2)" stroke="none"/>
      <path fill="none" d="M-58.2054 3.3723 L-33.7658 21.8788" clip-path="url(#clipPath2)"/>
      <path d="M-27.388 26.7083 L-33.9363 15.478 L-34.563 21.2751 L-39.9731 23.4502 Z" clip-path="url(#clipPath2)" stroke="none"/>
      <path fill="none" d="M-81.009 -26.6277 L-99.1761 -117.6257" clip-path="url(#clipPath2)"/>
      <path d="M-100.7423 -125.4709 L-103.2962 -112.7242 L-98.9803 -116.645 L-93.4897 -114.682 Z" clip-path="url(#clipPath2)" stroke="none"/>
    </g>
    <g fill="rgb(245,245,245)" text-rendering="geometricPrecision" shape-rendering="geometricPrecision" transform="matrix(1,0,0,1,377,362)" stroke="rgb(245,245,245)">
      <rect x="16.8432" y="-245.0328" clip-path="url(#clipPath2)" width="233.9661" rx="4" ry="4" height="188.4052" stroke="none"/>
      <rect x="16.8432" y="-245.0328" clip-path="url(#clipPath2)" fill="rgb(235,235,235)" width="233.9661" height="21.4609" stroke="none"/>
    </g>
    <g font-size="15px" stroke-linecap="butt" transform="matrix(1,0,0,1,377,362)" text-rendering="geometricPrecision" font-family="sans-serif" shape-rendering="geometricPrecision" stroke-miterlimit="1.45">
      <text x="153.9167" xml:space="preserve" y="-229.1095" clip-path="url(#clipPath2)" stroke="none">Raspberry Pi</text>
      <rect x="16.8432" y="-245.0328" clip-path="url(#clipPath2)" fill="none" width="233.9661" stroke-dasharray="6,2" rx="4" ry="4" height="188.4052"/>
    </g>
    <g fill="silver" text-rendering="geometricPrecision" shape-rendering="geometricPrecision" transform="matrix(1,0,0,1,377,362)" stroke="silver">
      <rect x="85.2236" width="54.9288" height="30" y="-101.6277" clip-path="url(#clipPath2)" stroke="none"/>
    </g>
    <g text-rendering="geometricPrecision" stroke-miterlimit="1.45" shape-rendering="geometricPrecision" transform="matrix(1,0,0,1,377,362)" stroke-linecap="butt">
      <rect fill="none" x="85.2236" width="54.9288" height="30" y="-101.6277" clip-path="url(#clipPath2)"/>
      <text x="97.1929" xml:space="preserve" y="-82.4734" clip-path="url(#clipPath2)" font-family="sans-serif" stroke="none">EVSE</text>
    </g>
    <g fill="silver" text-rendering="geometricPrecision" shape-rendering="geometricPrecision" transform="matrix(1,0,0,1,377,362)" stroke="silver">
      <rect x="164.6478" width="58.4072" height="30" y="-101.6277" clip-path="url(#clipPath2)" stroke="none"/>
    </g>
    <g text-rendering="geometricPrecision" stroke-miterlimit="1.45" shape-rendering="geometricPrecision" transform="matrix(1,0,0,1,377,362)" stroke-linecap="butt">
      <rect fill="none" x="164.6478" width="58.4072" height="30" y="-101.6277" clip-path="url(#clipPath2)"/>
      <text x="167.2674" xml:space="preserve" y="-82.4734" clip-path="url(#clipPath2)" font-family="sans-serif" stroke="none">MPM3PM</text>
    </g>
    <g fill="rgb(255,204,102)" text-rendering="geometricPrecision" shape-rendering="geometricPrecision" transform="matrix(1,0,0,1,377,362)" stroke="rgb(255,204,102)">
      <rect x="85.2236" y="-208.5719" clip-path="url(#clipPath2)" width="129.715" rx="4" ry="4" height="30" stroke="none"/>
    </g>
    <g text-rendering="geometricPrecision" stroke-miterlimit="1.45" shape-rendering="geometricPrecision" transform="matrix(1,0,0,1,377,362)" stroke-linecap="butt">
      <rect x="85.2236" y="-208.5719" clip-path="url(#clipPath2)" fill="none" width="129.715" rx="4" ry="4" height="30"/>
      <text x="124.0069" xml:space="preserve" y="-189.4176" clip-path="url(#clipPath2)" font-family="sans-serif" stroke="none">OpenWB</text>
    </g>
    <g fill="rgb(204,153,255)" text-rendering="geometricPrecision" shape-rendering="geometricPrecision" transform="matrix(1,0,0,1,377,362)" stroke="rgb(204,153,255)">
      <rect x="92.7602" width="115.2216" height="30" y="-155.0998" clip-path="url(#clipPath2)" stroke="none"/>
    </g>
    <g text-rendering="geometricPrecision" stroke-miterlimit="1.45" shape-rendering="geometricPrecision" transform="matrix(1,0,0,1,377,362)" stroke-linecap="butt">
      <rect fill="none" x="92.7602" width="115.2216" height="30" y="-155.0998" clip-path="url(#clipPath2)"/>
      <text x="98.6181" xml:space="preserve" y="-135.9455" clip-path="url(#clipPath2)" font-family="sans-serif" stroke="none">modbus collector</text>
      <path fill="none" d="M86.0379 -180.1735 L-52.4265 -151.2055" clip-path="url(#clipPath2)"/>
      <path d="M-60.257 -149.5673 L-47.4874 -147.1305 L-51.4477 -151.4102 L-49.5351 -156.9186 Z" clip-path="url(#clipPath2)" stroke="none"/>
      <path fill="none" d="M139.8002 -125.0998 L127.8672 -108.167" clip-path="url(#clipPath2)"/>
      <path d="M123.2588 -101.6277 L134.2585 -108.5564 L128.4433 -108.9844 L126.0844 -114.3169 Z" clip-path="url(#clipPath2)" stroke="none"/>
      <path fill="none" d="M162.5681 -125.0998 L176.6071 -107.8346" clip-path="url(#clipPath2)"/>
      <path d="M181.6543 -101.6277 L177.9629 -114.0926 L175.9762 -108.6105 L170.2042 -107.7836 Z" clip-path="url(#clipPath2)" stroke="none"/>
      <path fill="none" d="M92.7602 -140.1839 L-52.257 -140.3957" clip-path="url(#clipPath2)"/>
      <path d="M-60.257 -140.4073 L-48.2643 -135.3898 L-51.257 -140.3942 L-48.2497 -145.3898 Z" clip-path="url(#clipPath2)" stroke="none"/>
    </g>
  </g>
</svg>
